<svg width="29" height="29" viewBox="0 0 29 29" fill="none" xmlns="http://www.w3.org/2000/svg">
<path d="M14.5521 27.9616C22.123 27.9616 28.2604 21.8242 28.2604 14.2533C28.2604 6.68235 22.123 0.544922 14.5521 0.544922C6.98118 0.544922 0.84375 6.68235 0.84375 14.2533C0.84375 21.8242 6.98118 27.9616 14.5521 27.9616Z" stroke="white" stroke-width="0.583333"/>
<path d="M17.6484 11.4538C17.6484 11.2927 17.5178 11.1621 17.3567 11.1621H14.7317C14.5706 11.1621 14.4401 11.2927 14.4401 11.4538C14.4401 11.6148 14.5706 11.7454 14.7317 11.7454H17.0651V14.0788C17.0651 14.2398 17.1956 14.3704 17.3567 14.3704C17.5178 14.3704 17.6484 14.2398 17.6484 14.0788V11.4538ZM11.2172 18.0058L17.563 11.66L17.1505 11.2475L10.8047 17.5934L11.2172 18.0058Z" fill="white"/>
</svg>
